<svg xmlns="http://www.w3.org/2000/svg" xml:space="preserve" id="Layer_1" x="0" y="0" style="enable-background:new 0 0 976.7 205.6" version="1.1" viewBox="0 0 976.7 205.6"><path d="M36.7 205.6h23.8L93.3 7.7h8.1V0h-30v7.7h12.9L59.7 158.2 38.1 7.7h12.7V0H0v7.7h6.7zM113.4 141.2l15.5-98.7 15.4 98.7h-30.9zm-26.5 56.7v7.7h30.4v-7.7h-13.1l7.9-48.4h33.3l7.7 48.4h-12v7.7h49.5v-7.7h-6.1L152.7 0h-25.5l-32 197.9h-8.3zM197.1 197.9v7.7h30.3v-7.7h-13.6V28.6l59 177h17.9V7.7h9V0H268v7.7h13.6v129.2L235.5 0h-41.1v7.7h10.3v190.2zM308.4 197.9v7.7H357v-7.7h-8.5V7.7h8.5V0h-48.6v7.7h8.5v190.2zM391 197.9v7.7h50.8v-7.7h-9.6V7.7h16l11.8 54h6.8V0H366v61.7h6.7l11.8-54h16v190.2zM500.1 197.9v7.7h50.8v-7.7h-9.6v-84.3L565.8 7.7h7.1V0h-29.7v7.7h13.5L536.3 96 510.9 7.7h12.7V0h-49.9v7.7h6.4l29.6 106.5v83.7zM612.2 197.9v7.7h52.7v-7.7h-12.5v-93.6h18.7l6.4 25.8h6.8V69.7h-6.8l-6.4 26.1h-18.7V7.7h28.8l12.3 46h6.7V0h-88v7.7h8.5v190.2zM719.1 141.2l15.5-98.7 15.4 98.7h-30.9zm-26.4 56.7v7.7h30.4v-7.7H710l7.9-48.4h33.3l7.7 48.4h-12v7.7h49.5v-7.7h-6.1L758.5 0H733l-32 197.9h-8.3zM802.8 197.9v7.7h48.7v-7.7H843V7.7h8.5V0h-48.7v7.7h8.5v190.2zM906 8c15.4 0 26.9 6.8 26.9 38.6v17.2c0 27.1-8 37.8-26 37.8h-5.3V8h4.4zm-44.7 189.9v7.7H914v-7.7h-12.5v-88.4h9l29.4 96.2h36.9V198h-6l-31.4-98.1c9.9-5 25.5-16.4 25.5-45.8 0-37.3-24.3-53.9-58.1-53.9h-45.4v7.7h8.5v190.2h-8.6z" fill="#fff"/></svg>